<?xml version="1.0" encoding="utf-8"?>
<!-- Generator: Adobe Illustrator 17.0.0, SVG Export Plug-In . SVG Version: 6.00 Build 0)  -->
<!DOCTYPE svg PUBLIC "-//W3C//DTD SVG 1.1//EN" "http://www.w3.org/Graphics/SVG/1.1/DTD/svg11.dtd">
<svg version="1.1" id="Layer_1" xmlns="http://www.w3.org/2000/svg" xmlns:xlink="http://www.w3.org/1999/xlink" x="0px" y="0px"
	 width="16px" height="16px" viewBox="0 0 16 16" enable-background="new 0 0 16 16" xml:space="preserve">
<path fill="#F2F2F2" d="M10.5,8c0,1.381-1.119,2.5-2.5,2.5S5.5,9.381,5.5,8S6.619,5.5,8,5.5S10.5,6.619,10.5,8z"/>
<path fill="#F2F2F2" d="M0,8c0,0,3-5.5,8-5.5S16,8,16,8s-3,5.5-8,5.5S0,8,0,8z M8,11.5c1.933,0,3.5-1.567,3.5-3.5S9.933,4.5,8,4.5
	S4.5,6.067,4.5,8S6.067,11.5,8,11.5z"/>
</svg>
