<?xml version="1.0" encoding="utf-8"?>
<!-- Generator: Adobe Illustrator 17.0.0, SVG Export Plug-In . SVG Version: 6.00 Build 0)  -->
<!DOCTYPE svg PUBLIC "-//W3C//DTD SVG 1.1//EN" "http://www.w3.org/Graphics/SVG/1.1/DTD/svg11.dtd">
<svg version="1.1" id="Layer_1" xmlns="http://www.w3.org/2000/svg" xmlns:xlink="http://www.w3.org/1999/xlink" x="0px" y="0px"
	 width="16px" height="16px" viewBox="0 0 16 16" enable-background="new 0 0 16 16" xml:space="preserve">
<path fill="#F2F2F2" d="M11.743,10.344c2.122-2.896,1.495-6.963-1.401-9.085S3.379-0.236,1.257,2.66s-1.495,6.963,1.401,9.085
	c2.289,1.677,5.401,1.676,7.688-0.003h-0.001c0.03,0.04,0.062,0.078,0.098,0.115l3.85,3.85c0.39,0.391,1.024,0.391,1.414,0
	s0.391-1.024,0.001-1.414l-3.85-3.85c-0.036-0.036-0.074-0.07-0.115-0.1L11.743,10.344z M12.001,6.5c0,3.038-2.462,5.5-5.5,5.5
	s-5.5-2.462-5.5-5.5S3.463,1,6.501,1S12.001,3.462,12.001,6.5z"/>
</svg>
